<!DOCTYPE svg PUBLIC "-//W3C//DTD SVG 1.1//EN" "http://www.w3.org/Graphics/SVG/1.1/DTD/svg11.dtd">
<svg xmlns="http://www.w3.org/2000/svg" xmlns:xlink="http://www.w3.org/1999/xlink" width="742px" height="578px" version="1.1"><defs/><g transform="translate(0.5,0.5)"><g id="cell-408b0b97b8c3187c-18"><path d="M 520.4 437 L 520.4 447.2 Q 520.4 457.2 520.42 455.72 L 520.43 454.24" fill="none" stroke="#666666" stroke-miterlimit="10" pointer-events="none"/></g><g id="cell-408b0b97b8c3187c-25"><path d="M 681.2 471 L 681.2 432 Q 681.2 422 671.2 422 L 617.2 422 Q 607.2 422 597.2 422.16 L 582 422.4" fill="none" stroke="#00cccc" stroke-miterlimit="10" pointer-events="none"/></g><g id="cell-408b0b97b8c3187c-26"><path d="M 681.2 471 L 681.2 408 Q 681.2 398 671.2 398 L 340 398 Q 330 398 330 408 L 330 413.8 Q 330 419.6 320 419.6 L 300 419.6" fill="none" stroke="#00cccc" stroke-miterlimit="10" pointer-events="none"/></g><g id="cell-408b0b97b8c3187c-11"><path d="M 77.2 130.8 L 77.2 98" fill="none" stroke="#00994d" stroke-miterlimit="10" pointer-events="none"/></g><g id="cell-408b0b97b8c3187c-10"><path d="M 146.85 130.33 L 147.2 98.8" fill="none" stroke="#00994d" stroke-miterlimit="10" pointer-events="none"/></g><g id="cell-3f5fc188c4f296b7-1"><rect x="33.5" y="28" width="680" height="70" fill="#ffffff" stroke="#666666" stroke-width="2" pointer-events="none"/><g fill="#4D4D4D" font-family="Verdana" text-anchor="middle" font-size="14px"><text x="373" y="13.3">Main Chamber</text></g></g><g id="cell-3f5fc188c4f296b7-5"><path d="M 60 137 L 76.58 147 L 60 157 Z M 93.16 137 L 76.58 147 L 93.16 157 Z" fill="#ffffff" stroke="#666666" stroke-linejoin="round" stroke-miterlimit="10" transform="rotate(-90,76.58,147)" pointer-events="none"/><g fill="#4D4D4D" font-family="Tahoma" font-weight="bold" text-anchor="middle" font-size="10px" transform="rotate(-90,62.78,147.2)"><text x="62.28" y="143.7">Fast Vent </text></g></g><g id="cell-3f5fc188c4f296b7-10" content="&lt;object label=&quot;Slow Vent &quot; id=&quot;test&quot;/&gt;"><path d="M 130 137 L 146.66 147 L 130 157 Z M 163.33 137 L 146.66 147 L 163.33 157 Z" fill="#ffffff" stroke="#666666" stroke-linejoin="round" stroke-miterlimit="10" transform="rotate(-90,146.66,147)" pointer-events="none"/><g fill="#4D4D4D" font-family="Tahoma" font-weight="bold" text-anchor="middle" font-size="10px" transform="rotate(-90,132.87,147.2)"><text x="132.37" y="143.7">Slow Vent </text></g></g><g id="cell-3f5fc188c4f296b7-11"><path d="M 320 137 L 336.67 147 L 320 157 Z M 353.33 137 L 336.67 147 L 353.33 157 Z" fill="#ffffff" stroke="#666666" stroke-linejoin="round" stroke-miterlimit="10" transform="rotate(-90,336.66,147)" pointer-events="none"/><g fill="#4D4D4D" font-family="Tahoma" font-weight="bold" text-anchor="middle" font-size="10px" transform="rotate(-90,322.87,147.2)"><text x="322.37" y="131.7">Fast</text><text x="322.37" y="143.7">Roughing </text></g></g><g id="cell-3f5fc188c4f296b7-12"><path d="M 395 137 L 411.67 147 L 395 157 Z M 428.33 137 L 411.67 147 L 428.33 157 Z" fill="#ffffff" stroke="#666666" stroke-linejoin="round" stroke-miterlimit="10" transform="rotate(-90,411.66,147)" pointer-events="none"/><g fill="#4D4D4D" font-family="Tahoma" font-weight="bold" text-anchor="middle" font-size="10px" transform="rotate(-90,397.87,147.2)"><text x="397.37" y="131.7">Slow</text><text x="397.37" y="143.7">Roughing</text></g></g><g id="cell-3f5fc188c4f296b7-20"><path d="M 504 140 L 520.66 150 L 504 160 Z M 537.33 140 L 520.66 150 L 537.33 160 Z" fill="#ffffff" stroke="#666666" stroke-linejoin="round" stroke-miterlimit="10" transform="rotate(-90,520.66,150)" pointer-events="none"/><g fill="#4D4D4D" font-family="Tahoma" font-weight="bold" text-anchor="middle" font-size="10px" transform="rotate(-90,506.87,150.2)"><text x="506.37" y="134.7">Throttle</text><text x="506.37" y="146.7">Valve 1</text></g></g><g id="cell-3f5fc188c4f296b7-21"><path d="M 222 140 L 238.66 150 L 222 160 Z M 255.33 140 L 238.66 150 L 255.33 160 Z" fill="#ffffff" stroke="#666666" stroke-linejoin="round" stroke-miterlimit="10" transform="rotate(-90,238.66,150)" pointer-events="none"/><g fill="#4D4D4D" font-family="Tahoma" font-weight="bold" text-anchor="middle" font-size="10px" transform="rotate(-90,224.87,150.2)"><text x="224.37" y="134.7">Throttle</text><text x="224.37" y="146.7"> Valve 2</text></g></g><g id="cell-3f5fc188c4f296b7-22"><path d="M 222 199 L 238.66 209 L 222 219 Z M 255.33 199 L 238.66 209 L 255.33 219 Z" fill="#ffffff" stroke="#666666" stroke-linejoin="round" stroke-miterlimit="10" transform="rotate(-90,238.66,209)" pointer-events="none"/><g fill="#4D4D4D" font-family="Tahoma" font-weight="bold" text-anchor="middle" font-size="10px" transform="rotate(-90,224.87,209.2)"><text x="224.37" y="193.7">High</text><text x="224.37" y="205.7"> Vacuum 2</text></g></g><g id="cell-3f5fc188c4f296b7-25"><path d="M 504 199 L 520.66 209 L 504 219 Z M 537.33 199 L 520.66 209 L 537.33 219 Z" fill="#ffffff" stroke="#666666" stroke-linejoin="round" stroke-miterlimit="10" transform="rotate(-90,520.66,209)" pointer-events="none"/><g fill="#4D4D4D" font-family="Tahoma" font-weight="bold" text-anchor="middle" font-size="10px" transform="rotate(-90,506.87,209.2)"><text x="506.37" y="193.7">High</text><text x="506.37" y="205.7">Vacuum 1</text></g></g><g id="cell-4111929939ac9277-6"><path d="M 578.4 154.5 L 578.4 144.4 Q 578.4 134.4 578.79 140.53 L 579.18 146.66" fill="none" stroke="#666666" stroke-miterlimit="10" pointer-events="none"/></g><g id="cell-3f5fc188c4f296b7-26"><ellipse cx="579" cy="180" rx="25" ry="25" fill="#ffffff" stroke="#666666" pointer-events="none"/><path d="M 553.5 179.5 L 603.5 179.5" fill="none" stroke="#666666" stroke-miterlimit="10" pointer-events="none"/></g><g id="cell-4111929939ac9277-5"><path d="M 641.6 154.5 L 641.6 144.4 Q 641.6 134.4 641.51 140.53 L 641.42 146.66" fill="none" stroke="#666666" stroke-miterlimit="10" pointer-events="none"/></g><g id="cell-3f5fc188c4f296b7-29"><ellipse cx="642" cy="180" rx="25" ry="25" fill="#ffffff" stroke="#666666" pointer-events="none"/><path d="M 616.5 179.5 L 666.5 179.5" fill="none" stroke="#666666" stroke-miterlimit="10" pointer-events="none"/></g><g id="cell-3f5fc188c4f296b7-31"><path d="M 505.13 297.73 C 509.02 293.45 514.62 291 520.5 291 C 526.38 291 531.98 293.45 535.88 297.73 L 535.88 387.26 C 531.98 391.54 526.38 394 520.5 394 C 514.62 394 509.02 391.54 505.13 387.26 Z M 566.63 407.16 C 571.04 410.93 573.57 416.37 573.57 422.08 C 573.57 427.79 571.04 433.22 566.63 437 L 474.38 437 C 469.96 433.22 467.43 427.79 467.43 422.08 C 467.43 416.37 469.96 410.93 474.38 407.16 Z M 573.29 422.08 L 582 422.08 M 582 412.13 L 582 432.03 M 459 422.08 L 467.71 422.08 M 459 412.13 L 459 432.03 M 505.13 387.26 L 535.88 387.26 M 505.13 297.73 L 535.88 297.73" fill="#ffffff" stroke="#666666" stroke-miterlimit="10" pointer-events="none"/><rect x="518.45" y="393.73" width="4.1" height="13.43" fill="#ffffff" stroke="#666666" pointer-events="none"/><g fill="#4D4D4D" font-family="Tahoma" font-weight="bold" text-anchor="middle" font-size="10px"><text x="519.8" y="423.8">Cryo Pump 1</text></g></g><g id="cell-3f5fc188c4f296b7-40"><ellipse cx="477" cy="339" rx="25" ry="25" fill="#ffffff" stroke="#666666" pointer-events="none"/><path d="M 452 339 L 502 339" fill="none" stroke="#666666" stroke-miterlimit="10" pointer-events="none"/></g><g id="cell-3f5fc188c4f296b7-42"><path d="M 477.2 364.4 L 477.2 407.2" fill="none" stroke="#666666" stroke-miterlimit="10" pointer-events="none"/></g><g id="cell-3f5fc188c4f296b7-48"><path d="M 223.13 294.73 C 227.02 290.45 232.62 288 238.5 288 C 244.38 288 249.98 290.45 253.88 294.73 L 253.88 384.26 C 249.98 388.54 244.38 391 238.5 391 C 232.62 391 227.02 388.54 223.13 384.26 Z M 284.63 404.16 C 289.04 407.93 291.57 413.37 291.57 419.08 C 291.57 424.79 289.04 430.22 284.63 434 L 192.38 434 C 187.96 430.22 185.43 424.79 185.43 419.08 C 185.43 413.37 187.96 407.93 192.38 404.16 Z M 291.29 419.08 L 300 419.08 M 300 409.13 L 300 429.03 M 177 419.08 L 185.71 419.08 M 177 409.13 L 177 429.03 M 223.13 384.26 L 253.88 384.26 M 223.13 294.73 L 253.88 294.73" fill="#ffffff" stroke="#666666" stroke-miterlimit="10" pointer-events="none"/><rect x="236.45" y="390.73" width="4.1" height="13.43" fill="#ffffff" stroke="#666666" pointer-events="none"/><g fill="#4D4D4D" font-family="Tahoma" font-weight="bold" text-anchor="middle" font-size="10px"><text x="237.8" y="420.8">Cryo Pump 2</text></g></g><g id="cell-3f5fc188c4f296b7-49"><path d="M 281.6 361.2 L 281.6 404" fill="none" stroke="#666666" stroke-miterlimit="10" pointer-events="none"/></g><g id="cell-3f5fc188c4f296b7-50"><ellipse cx="282" cy="339" rx="25" ry="25" fill="#ffffff" stroke="#666666" pointer-events="none"/><path d="M 257 339 L 307 339" fill="none" stroke="#666666" stroke-miterlimit="10" pointer-events="none"/></g><g id="cell-b0ce11fcde538f9-1"><path d="M 222 461 L 238.66 471 L 222 481 Z M 255.33 461 L 238.66 471 L 255.33 481 Z" fill="#ffffff" stroke="#666666" stroke-linejoin="round" stroke-miterlimit="10" transform="rotate(-90,238.66,471)" pointer-events="none"/><g fill="#4D4D4D" font-family="Tahoma" font-weight="bold" text-anchor="middle" font-size="10px" transform="rotate(-90,224.87,471.2)"><text x="224.37" y="467.7">Roughing 2</text></g></g><g id="cell-b0ce11fcde538f9-5"><path d="M 503.5 461 L 520.25 471 L 503.5 481 Z M 537.01 461 L 520.25 471 L 537.01 481 Z" fill="#ffffff" stroke="#666666" stroke-linejoin="round" stroke-miterlimit="10" transform="rotate(-90,520.26,471)" pointer-events="none"/><g fill="#4D4D4D" font-family="Tahoma" font-weight="bold" text-anchor="middle" font-size="10px" transform="rotate(-90,506.45,471.2)"><text x="505.95" y="467.7">Roughing 1</text></g></g><g id="cell-b0ce11fcde538f9-7"><path d="M 110 319 L 126.66 329 L 110 339 Z M 143.33 319 L 126.66 329 L 143.33 339 Z" fill="#ffffff" stroke="#666666" stroke-linejoin="round" stroke-miterlimit="10" pointer-events="none"/><g fill="#4D4D4D" font-family="Tahoma" font-weight="bold" text-anchor="middle" font-size="10px"><text x="125.96" y="311.7">Purging 2</text></g></g><g id="cell-b0ce11fcde538f9-11"><path d="M 614 288 L 630.66 298 L 614 308 Z M 647.33 288 L 630.66 298 L 647.33 308 Z" fill="#ffffff" stroke="#666666" stroke-linejoin="round" stroke-miterlimit="10" pointer-events="none"/><g fill="#4D4D4D" font-family="Tahoma" font-weight="bold" text-anchor="middle" font-size="10px"><text x="629.96" y="280.7">Purging 1</text></g></g><g id="cell-b0ce11fcde538f9-13"><path d="M 324 532.54 L 338.5 532.54 L 338.5 524.69 L 350.6 524.69 C 354.58 515.76 363.57 510 373.5 510 C 383.43 510 392.42 515.76 396.4 524.69 L 408.5 524.69 L 408.5 532.54 L 423 532.54 L 423 536.46 L 408.5 536.46 L 408.5 544.31 L 396.4 544.31 C 392.42 553.24 383.43 559 373.5 559 C 363.57 559 354.58 553.24 350.6 544.31 L 338.5 544.31 L 338.5 536.46 L 324 536.46 Z" fill="#ffffff" stroke="#666666" stroke-miterlimit="10" pointer-events="none"/><path d="M 338.5 532.54 L 338.5 536.46 M 408.5 532.54 L 408.5 536.46 M 350.6 544.31 C 347.82 538.06 347.82 530.94 350.6 524.69 M 396.4 524.69 C 399.18 530.94 399.18 538.06 396.4 544.31" fill="none" stroke="#666666" stroke-miterlimit="10" pointer-events="none"/><g fill="#4D4D4D" font-family="Tahoma" font-weight="bold" text-anchor="middle" font-size="10px"><text x="372.8" y="574.9">Pre Pump</text></g></g><g id="cell-b0ce11fcde538f9-18"><path d="M 520.73 133.34 L 520.76 123.2 Q 520.8 113.2 520.6 105.8 L 520.4 98.4" fill="none" stroke="#666666" stroke-miterlimit="10" pointer-events="none"/></g><g id="cell-b0ce11fcde538f9-27"><path d="M 238.66 166.66 L 238.66 192.33" fill="none" stroke="#666666" stroke-miterlimit="10" pointer-events="none"/></g><g id="cell-408b0b97b8c3187c-20"><path d="M 520.29 487.75 L 520.38 525.2 Q 520.4 535.2 510.4 535.2 L 423 535.2" fill="none" stroke="#666666" stroke-miterlimit="10" pointer-events="none"/></g><g id="cell-b0ce11fcde538f9-28"><path d="M 520.66 166.66 L 520.66 192.34" fill="none" stroke="#666666" stroke-miterlimit="10" pointer-events="none"/></g><g id="cell-b0ce11fcde538f9-30"><path d="M 520.65 225.66 L 520.58 291" fill="none" stroke="#666666" stroke-miterlimit="10" pointer-events="none"/></g><g id="cell-b0ce11fcde538f9-31"><path d="M 238.65 225.66 L 238.58 288" fill="none" stroke="#666666" stroke-miterlimit="10" pointer-events="none"/></g><g id="cell-b0ce11fcde538f9-33"><path d="M 614 298.14 L 535.2 298.8" fill="none" stroke="#00994d" stroke-miterlimit="10" pointer-events="none"/></g><g id="cell-b0ce11fcde538f9-36"><path d="M 143.33 329.2 L 223.2 329.2" fill="none" stroke="#00994d" stroke-miterlimit="10" pointer-events="none"/></g><g id="cell-b0ce11fcde538f9-40"><path d="M 0 209 L 16.66 219 L 0 229 Z M 33.33 209 L 16.66 219 L 33.33 229 Z" fill="#ffffff" stroke="#666666" stroke-linejoin="round" stroke-miterlimit="10" pointer-events="none"/><g fill="#4D4D4D" font-family="Tahoma" font-weight="bold" text-anchor="middle" font-size="10px"><text x="15.96" y="189.7">N2</text><text x="15.96" y="201.7">Input</text></g></g><g id="cell-b0ce11fcde538f9-41"><path d="M 76.54 163.58 L 76.43 208.8 Q 76.4 218.8 66.4 218.8 L 33.6 218.8" fill="none" stroke="#00994d" stroke-miterlimit="10" pointer-events="none"/></g><g id="cell-b0ce11fcde538f9-43"><path d="M 33.33 219.2 L 136.8 219.2 Q 146.8 219.2 146.78 209.2 L 146.7 163.66" fill="none" stroke="#00994d" stroke-miterlimit="10" pointer-events="none"/></g><g id="cell-b0ce11fcde538f9-48"><path d="M 336.72 163.66 L 336.77 178 Q 336.8 188 346.8 188 L 364 188 Q 374 188 374 198 L 374 510" fill="none" stroke="#666666" stroke-miterlimit="10" pointer-events="none"/></g><g id="cell-b0ce11fcde538f9-49"><path d="M 411.64 163.66 L 411.62 178 Q 411.6 188 401.6 188 L 384 188 Q 374 188 374 198 L 374 510" fill="none" stroke="#666666" stroke-miterlimit="10" pointer-events="none"/></g><g id="cell-408b0b97b8c3187c-6"><path d="M 336.71 130.34 L 336.8 98" fill="none" stroke="#666666" stroke-miterlimit="10" pointer-events="none"/></g><g id="cell-408b0b97b8c3187c-7"><path d="M 411.64 130.34 L 411.6 99.6" fill="none" stroke="#666666" stroke-miterlimit="10" pointer-events="none"/></g><g id="cell-408b0b97b8c3187c-8"><path d="M 411.64 130.34 L 411.6 98.8" fill="none" stroke="#666666" stroke-miterlimit="10" pointer-events="none"/></g><g id="cell-408b0b97b8c3187c-9"><path d="M 238.71 133.33 L 238.8 98" fill="none" stroke="#666666" stroke-miterlimit="10" pointer-events="none"/></g><g id="cell-408b0b97b8c3187c-13"><path d="M 238.4 434 L 238.4 444 Q 238.4 454 238.6 454.17 L 238.8 454.33" fill="none" stroke="#666666" stroke-miterlimit="10" pointer-events="none"/></g><g id="cell-408b0b97b8c3187c-15"><path d="M 238.7 487.66 L 238.78 525.2 Q 238.8 535.2 248.8 535.2 L 324 535.2" fill="none" stroke="#666666" stroke-miterlimit="10" pointer-events="none"/></g><g id="cell-408b0b97b8c3187c-21"><path d="M 645.8 511 L 645.8 471 L 666.2 471 L 666.2 484 L 707.02 484 L 707.02 511 Z" fill="#ffffff" stroke="#666666" stroke-miterlimit="10" pointer-events="none"/><rect x="631" y="494" width="14.29" height="4" fill="#ffffff" stroke="#666666" pointer-events="none"/><path d="M 707.02 494 L 720.29 494 L 720.29 492.5 L 731 496 L 720.29 499.5 L 720.29 498 L 707.02 498 Z" fill="#ffffff" stroke="#666666" stroke-miterlimit="10" pointer-events="none"/><g fill="#4D4D4D" font-family="Tahoma" font-weight="bold" text-anchor="middle" font-size="10px"><text x="680.3" y="526.9">Compressor</text></g></g><g id="cell-408b0b97b8c3187c-27"><path d="M 26.5 299.5 L 34.83 299.5 L 34.83 296.1 L 68.17 296.1 L 68.17 299.5 L 76.5 299.5 L 76.5 282.5 L 68.17 282.5 L 68.17 285.9 L 34.83 285.9 L 34.83 282.5 L 26.5 282.5 Z M 34.83 285.9 L 34.83 296.1 M 68.17 285.9 L 68.17 296.1" fill="#ffffff" stroke="#666666" stroke-miterlimit="10" transform="rotate(-90,51.5,291)" pointer-events="none"/><g fill="#4D4D4D" font-family="Tahoma" font-weight="bold" text-anchor="middle" font-size="10px" transform="rotate(-90,39.2,291.2)"><text x="38.7" y="275.7">Purge</text><text x="38.7" y="287.7">Heater 2</text></g></g><g id="cell-408b0b97b8c3187c-29"><path d="M 33.33 219.2 L 42.27 219.2 Q 51.2 219.2 51.2 229.2 L 51.2 239.2 Q 51.2 249.2 51.26 257.6 L 51.32 266" fill="none" stroke="#00994d" stroke-miterlimit="10" pointer-events="none"/></g><g id="cell-408b0b97b8c3187c-30"><path d="M 51.57 316 L 51.58 322 Q 51.6 328 61.6 328 L 110 328" fill="none" stroke="#00994d" stroke-miterlimit="10" pointer-events="none"/></g><g id="cell-408b0b97b8c3187c-32"><path d="M 670 255 L 678.33 255 L 678.33 251.6 L 711.67 251.6 L 711.67 255 L 720 255 L 720 238 L 711.67 238 L 711.67 241.4 L 678.33 241.4 L 678.33 238 L 670 238 Z M 678.33 241.4 L 678.33 251.6 M 711.67 241.4 L 711.67 251.6" fill="#ffffff" stroke="#666666" stroke-miterlimit="10" pointer-events="none"/><g fill="#4D4D4D" font-family="Tahoma" font-weight="bold" text-anchor="middle" font-size="10px"><text x="694.3" y="218.7">Purge Heater 1</text></g></g><g id="cell-408b0b97b8c3187c-34"><path d="M 670 246.4 L 160 246.4 Q 150 246.4 150 236.4 L 150 227.8 Q 150 219.2 140 219.2 L 33.33 219.2" fill="none" stroke="#00994d" stroke-miterlimit="10" pointer-events="none"/></g><g id="cell-408b0b97b8c3187c-35"><path d="M 720 246.4 L 730 246.4 Q 740 246.4 740 256.4 L 740 288 Q 740 298 730 298 L 647.33 298" fill="none" stroke="#00994d" stroke-miterlimit="10" pointer-events="none"/></g><g id="cell-408b0b97b8c3187c-42"><g fill="#4D4D4D" font-family="Tahoma" font-weight="bold" text-anchor="middle" font-size="6px"><text x="577.5" y="166.5">Full Range</text><text x="577.5" y="173.5"> Gauge</text></g></g><g id="cell-408b0b97b8c3187c-43"><g fill="#4D4D4D" font-family="Tahoma" text-anchor="middle" font-size="8px"><text x="577.5" y="191">800</text></g></g><g id="cell-408b0b97b8c3187c-44"><g fill="#4D4D4D" font-family="Tahoma" font-style="italic" text-anchor="middle" font-size="5px"><text x="577.5" y="197.5">mbar</text></g></g><g id="cell-408b0b97b8c3187c-45"><g fill="#4D4D4D" font-family="Tahoma" text-anchor="middle" font-size="8px"><text x="641" y="191">800</text></g></g><g id="cell-408b0b97b8c3187c-46"><g fill="#4D4D4D" font-family="Tahoma" font-style="italic" text-anchor="middle" font-size="5px"><text x="641" y="197.5">mbar</text></g></g><g id="cell-408b0b97b8c3187c-47"><g fill="#4D4D4D" font-family="Tahoma" font-weight="bold" text-anchor="middle" font-size="8px"><text x="641" y="171">Baratron</text></g></g><g id="cell-408b0b97b8c3187c-48"><g fill="#4D4D4D" font-family="Tahoma" font-weight="bold" text-anchor="middle" font-size="10px"><text x="281.5" y="331.5">Temp</text></g></g><g id="cell-408b0b97b8c3187c-49"><g fill="#4D4D4D" font-family="Tahoma" text-anchor="middle" font-size="8px"><text x="281.5" y="350.5">170</text></g></g><g id="cell-408b0b97b8c3187c-50"><g fill="#4D4D4D" font-family="Tahoma" font-style="italic" text-anchor="middle" font-size="6px"><text x="281.5" y="358">K</text></g></g><g id="cell-408b0b97b8c3187c-51"><g fill="#4D4D4D" font-family="Tahoma" text-anchor="middle" font-size="8px"><text x="476.33" y="350.5">170</text></g></g><g id="cell-408b0b97b8c3187c-52"><g fill="#4D4D4D" font-family="Tahoma" font-style="italic" text-anchor="middle" font-size="6px"><text x="476.33" y="358">K</text></g></g><g id="cell-408b0b97b8c3187c-53"><g fill="#4D4D4D" font-family="Tahoma" font-weight="bold" text-anchor="middle" font-size="10px"><text x="476.5" y="331.5">Temp</text></g></g><g id="cell-4111929939ac9277-7"><path d="M 578.73 113.34 L 578.76 103.2 Q 578.8 93.2 578.8 103.2 L 578.8 110.6 Q 578.8 118 578.73 108 L 578.66 98" fill="none" stroke="#666666" stroke-miterlimit="10" pointer-events="none"/></g><g id="cell-1835d5f5bbe9829f-2"><path d="M 562 120 L 578.66 130 L 562 140 Z M 595.33 120 L 578.66 130 L 595.33 140 Z" fill="#ffffff" stroke="#666666" stroke-linejoin="round" stroke-miterlimit="10" transform="rotate(-90,578.66,130)" pointer-events="none"/><g fill="#4D4D4D" font-family="Tahoma" font-weight="bold" text-anchor="middle" font-size="6px" transform="rotate(-90,564.87,130.2)"><text x="564.37" y="119.7">Full Range</text><text x="564.37" y="126.7">Isolation Valve</text></g></g><g id="cell-4111929939ac9277-2"><path d="M 641.64 113.34 L 641.62 103.2 Q 641.6 93.2 641.6 103.2 L 641.6 110.6 Q 641.6 118 641.63 108 L 641.66 98" fill="none" stroke="#666666" stroke-miterlimit="10" pointer-events="none"/></g><g id="cell-1835d5f5bbe9829f-8"><path d="M 625 120 L 641.66 130 L 625 140 Z M 658.33 120 L 641.66 130 L 658.33 140 Z" fill="#ffffff" stroke="#666666" stroke-linejoin="round" stroke-miterlimit="10" transform="rotate(-90,641.66,130)" pointer-events="none"/><g fill="#4D4D4D" font-family="Tahoma" font-weight="bold" text-anchor="middle" font-size="6px" transform="rotate(-90,627.87,130.2)"><text x="627.37" y="119.7">Baraton</text><text x="627.37" y="126.7">Isolation Valve</text></g></g><g id="cell-1835d5f5bbe9829f-20"><path d="M 701.6 154.5 L 701.6 144.4 Q 701.6 134.4 701.51 140.53 L 701.42 146.66" fill="none" stroke="#666666" stroke-miterlimit="10" pointer-events="none"/></g><g id="cell-1835d5f5bbe9829f-21"><ellipse cx="702" cy="180" rx="25" ry="25" fill="#ffffff" stroke="#666666" pointer-events="none"/><path d="M 676.5 179.5 L 726.5 179.5" fill="none" stroke="#666666" stroke-miterlimit="10" pointer-events="none"/></g><g id="cell-1835d5f5bbe9829f-22"><g fill="#4D4D4D" font-family="Tahoma" text-anchor="middle" font-size="8px"><text x="701" y="191">800</text></g></g><g id="cell-1835d5f5bbe9829f-23"><g fill="#4D4D4D" font-family="Tahoma" font-style="italic" text-anchor="middle" font-size="5px"><text x="701" y="197.5">mbar</text></g></g><g id="cell-4111929939ac9277-1"><path d="M 701.64 113.34 L 701.62 103.2 Q 701.6 93.2 701.6 103.2 L 701.6 110.6 Q 701.6 118 701.63 108 L 701.66 98" fill="none" stroke="#666666" stroke-miterlimit="10" pointer-events="none"/></g><g id="cell-1835d5f5bbe9829f-24"><path d="M 685 120 L 701.66 130 L 685 140 Z M 718.33 120 L 701.66 130 L 718.33 140 Z" fill="#ffffff" stroke="#666666" stroke-linejoin="round" stroke-miterlimit="10" transform="rotate(-90,701.66,130)" pointer-events="none"/><g fill="#4D4D4D" font-family="Tahoma" font-weight="bold" text-anchor="middle" font-size="6px" transform="rotate(-90,687.87,130.2)"><text x="687.37" y="119.7">SMC ZSE60F</text><text x="687.37" y="126.7">Isolation Valve</text></g></g><g id="cell-1835d5f5bbe9829f-26"><g fill="#4D4D4D" font-family="Tahoma" font-weight="bold" text-anchor="middle" font-size="7px"><text x="701" y="165.5">SMC</text><text x="701" y="173.5">ZSE60F</text></g></g></g></svg>